<?xml version="1.0" encoding="utf-8"?>
<!-- Generator: Adobe Illustrator 16.0.0, SVG Export Plug-In . SVG Version: 6.00 Build 0)  -->
<!DOCTYPE svg PUBLIC "-//W3C//DTD SVG 1.1//EN" "http://www.w3.org/Graphics/SVG/1.1/DTD/svg11.dtd">
<svg version="1.1" id="Ebene_2" xmlns="http://www.w3.org/2000/svg" xmlns:xlink="http://www.w3.org/1999/xlink" x="0px" y="0px"
	 width="1016px" height="326px" viewBox="0 0 1016 326" enable-background="new 0 0 1016 326" xml:space="preserve">
<style type="text/css">
	.link-protocol rect {
		pointer-events:all;
	}

	.link-protocol rect:hover {
		fill: black;
	}

</style>

<g>
	<defs>
		<rect id="SVGID_3_" x="25" y="49.28" width="966" height="253"/>
	</defs>
	<clipPath id="SVGID_4_">
		<use xlink:href="#SVGID_3_"  overflow="visible"/>
	</clipPath>
	
		<line clip-path="url(#SVGID_4_)" fill="#C7C9CB" stroke="#97999C" stroke-width="0.5" stroke-miterlimit="10" x1="212" y1="152" x2="212" y2="160.5"/>
	<rect x="25" y="49.28" opacity="0" clip-path="url(#SVGID_4_)" fill="#FFFFFF" width="966" height="253"/>
	<rect x="25" y="197.28" clip-path="url(#SVGID_4_)" fill="#E0E1E3" width="317" height="33"/>
	<rect x="25" y="264.28" clip-path="url(#SVGID_4_)" fill="#46B4C6" width="8" height="33"/>
	<g clip-path="url(#SVGID_4_)">
		<text transform="matrix(1 0 0 1 47.2573 285.7334)" fill="#030303" font-family="Helvetica" font-size="15">Tagesordnungspunkte im Bundestag zur Abgasaffäre</text>
	</g>
	<rect x="349" y="197.28" clip-path="url(#SVGID_4_)" fill="#E0E1E3" width="318" height="33"/>
	<rect x="674" y="197.28" clip-path="url(#SVGID_4_)" fill="#E0E1E3" width="317" height="33"/>
	
	<a href="/protokoll/#!/130?search=Abgasskandal#top-6-konsequenzen-aus-dem-abgasskandal-bei-dieselfahrzeugen" target="_blank" class="link-protocol"><rect x="273" y="197.364" clip-path="url(#SVGID_4_)" fill="#46B4C6" width="9" height="33"/></a>
	<a href="/protokoll/#!/132?search=Abgasaff%C3%A4re#top-zp-1-aktuelle-stunde-zu-neuen-erkenntnissen-zur-vw-abgasaffare" target="_blank" class="link-protocol"><rect x="292" y="197.364" clip-path="url(#SVGID_4_)" fill="#46B4C6" width="8" height="33"/></a>



	<g clip-path="url(#SVGID_4_)">
		<text transform="matrix(1 0 0 1 165.4639 248.7334)" fill="#030303" font-family="Helvetica" font-size="15">2015</text>
	</g>
	<g clip-path="url(#SVGID_4_)">
		<text transform="matrix(1 0 0 1 490.0132 248.7334)" fill="#030303" font-family="Helvetica" font-size="15">2016</text>
	</g>
	<g clip-path="url(#SVGID_4_)">
		<text transform="matrix(1 0 0 1 814.5625 248.7334)" fill="#030303" font-family="'Helvetica-Light'" font-size="15">2017</text>
	</g>
	<a href="/protokoll/#!/231?search=Abgasaff%C3%A4re#top-zp-2-aktuelle-stunde-zu-verscharften-abgastests-in-europa" target="_blank" class="link-protocol"><rect x="769" y="197.28" clip-path="url(#SVGID_4_)" fill="#46B4C6" width="8" height="33"/></a>
	
	<a href="/protokoll/#!/171?search=Abgasskandal#top-22-einsetzung-eines-untersuchungsausschusses" target="_blank" class="link-protocol"><rect x="463" y="197.28" clip-path="url(#SVGID_4_)" fill="#46B4C6" width="8" height="33"/></a>

	<g clip-path="url(#SVGID_4_)">
		<text transform="matrix(1 0 0 1 169.5767 178.3262)" fill="#030303" font-family="Helvetica" font-size="12" font-style="italic">15. Oktober</text>
	</g>
	<g clip-path="url(#SVGID_4_)">
		<text transform="matrix(1 0 0 1 291.5327 124.8652)" fill="#030303" font-family="Helvetica" font-size="12" font-style="italic">04. November</text>
	</g>
	<g clip-path="url(#SVGID_4_)">
		<text transform="matrix(1 0 0 1 294.2939 64.5859)" fill="#030303" font-family="Helvetica" font-size="12">Aktuelle Stunde</text>
	</g>
	<g clip-path="url(#SVGID_4_)">
		<text transform="matrix(1 0 0 1 294.2939 78.5859)" fill="#030303" font-family="Helvetica" font-size="12">zu neuen Erkennt-</text>
	</g>
	<g clip-path="url(#SVGID_4_)">
		<text transform="matrix(1 0 0 1 294.2939 93.5859)" fill="#030303" font-family="Helvetica" font-size="12">nissen zur</text>
	</g>
	<g clip-path="url(#SVGID_4_)">
		<text transform="matrix(1 0 0 1 293.2939 107.5859)" fill="#030303" font-family="Helvetica" font-size="12">VW- Abgasaffäre</text>
	</g>
	<g clip-path="url(#SVGID_4_)">
		<text transform="matrix(1 0 0 1 170.9023 132.6582)" fill="#030303" font-family="Helvetica" font-size="12">Konsequenzen aus</text>
	</g>
	<g clip-path="url(#SVGID_4_)">
		<text transform="matrix(1 0 0 1 170.9023 146.6582)" fill="#030303" font-family="Helvetica" font-size="12">dem Abgasskandal</text>
	</g>
	<g clip-path="url(#SVGID_4_)">
		<text transform="matrix(1 0 0 1 170.9023 161.6582)" fill="#030303" font-family="Helvetica" font-size="12">bei Dieselfahrzeugen</text>
	</g>
	<a href="/protokoll/#!/244?search=Abgasskandal#top-31-bericht-des-5-untersuchungsausschusses-abgas" target="_blank" class="link-protocol"><rect x="822" y="197.28" clip-path="url(#SVGID_4_)" fill="#46B4C6" width="8" height="33"/></a>
	<g clip-path="url(#SVGID_4_)">
		<text transform="matrix(1 0 0 1 687.5801 132.6582)" fill="#030303" font-family="Helvetica" font-size="12">Aktuelle Stunde zu</text>
	</g>
	<g clip-path="url(#SVGID_4_)">
		<text transform="matrix(1 0 0 1 687.5801 146.6582)" fill="#030303" font-family="Helvetica" font-size="12">verschärften Abgas-</text>
	</g>
	<g clip-path="url(#SVGID_4_)">
		<text transform="matrix(1 0 0 1 687.5801 161.6582)" fill="#030303" font-family="Helvetica" font-size="12">tests in Europa</text>
	</g>
	<g clip-path="url(#SVGID_4_)">
		<text transform="matrix(1 0 0 1 686.3438 178.3262)" fill="#030303" font-family="Helvetica" font-size="12" font-style="italic">27. April</text>
	</g>
	<g clip-path="url(#SVGID_4_)">
		<text transform="matrix(1 0 0 1 823.1064 132.6582)" fill="#030303" font-family="Helvetica" font-size="12">Bericht des</text>
	</g>
	<g clip-path="url(#SVGID_4_)">
		<text transform="matrix(1 0 0 1 823.1064 146.6582)" fill="#030303" font-family="Helvetica" font-size="12">5. Untersuchungs-</text>
	</g>
	<g clip-path="url(#SVGID_4_)">
		<text transform="matrix(1 0 0 1 823.1064 161.6582)" fill="#030303" font-family="Helvetica" font-size="12">ausschusses (Abgas)</text>
	</g>
	<g clip-path="url(#SVGID_4_)">
		<text transform="matrix(1 0 0 1 819.1064 178.3262)" fill="#030303" font-family="Helvetica" font-size="12" font-style="italic">30. Juni</text>
	</g>
	<a href="/protokoll/#!/155?search=Abgasskandal#top-zp-3-aktuelle-stunde-zum-abgasskandal" target="_blank" class="link-protocol"><rect x="383" y="197.28" clip-path="url(#SVGID_4_)" fill="#46B4C6" width="8" height="33"/></a>
	<g clip-path="url(#SVGID_4_)">
		<text transform="matrix(1 0 0 1 355.335 178.3262)" fill="#030303" font-family="Helvetica" font-size="12" font-style="italic">18. Februar</text>
	</g>
	<g clip-path="url(#SVGID_4_)">
		<text transform="matrix(1 0 0 1 358.7354 148.4355)" fill="#030303" font-family="Helvetica" font-size="12">Aktuelle Stunde</text>
	</g>
	<g clip-path="url(#SVGID_4_)">
		<text transform="matrix(1 0 0 1 358.7354 162.4355)" fill="#030303" font-family="Helvetica" font-size="12">zum Abgasskandal</text>
	</g>
	<g clip-path="url(#SVGID_4_)">
		<text transform="matrix(1 0 0 1 465.4165 92.624)" fill="#030303" font-family="Helvetica" font-size="12">Einsetzung eines</text>
	</g>
	<g clip-path="url(#SVGID_4_)">
		<text transform="matrix(1 0 0 1 465.4165 106.624)" fill="#030303" font-family="Helvetica" font-size="12">Untersuchungsausschusses</text>
	</g>
	<g clip-path="url(#SVGID_4_)">
		<text transform="matrix(1 0 0 1 462.6855 123.8652)" fill="#030303" font-family="Helvetica" font-size="12" font-style="italic">13. Mai</text>
	</g>
	<g clip-path="url(#SVGID_4_)">
		<line fill="#C7C9CB" stroke="#97999C" stroke-width="0.5" stroke-miterlimit="10" x1="277" y1="171.021" x2="277" y2="190.146"/>
		
			<line fill="#C7C9CB" stroke="#97999C" stroke-width="0.5" stroke-miterlimit="10" x1="386.667" y1="183" x2="386.667" y2="191.5"/>
		<line fill="#C7C9CB" stroke="#97999C" stroke-width="0.5" stroke-miterlimit="10" x1="467.5" y1="129" x2="467.5" y2="191.5"/>
		
			<line fill="#C7C9CB" stroke="#97999C" stroke-width="0.5" stroke-miterlimit="10" x1="772.5" y1="166.162" x2="772.5" y2="191.005"/>
		<line fill="#C7C9CB" stroke="#97999C" stroke-width="0.5" stroke-miterlimit="10" x1="826" y1="181.5" x2="826" y2="191.5"/>
		<line fill="#C7C9CB" stroke="#97999C" stroke-width="0.5" stroke-miterlimit="10" x1="296" y1="130" x2="296" y2="191.5"/>
	</g>
</g>
</svg>
