<?xml version="1.0" encoding="utf-8"?>
<!-- Generator: Adobe Illustrator 16.0.0, SVG Export Plug-In . SVG Version: 6.00 Build 0)  -->
<!DOCTYPE svg PUBLIC "-//W3C//DTD SVG 1.1//EN" "http://www.w3.org/Graphics/SVG/1.1/DTD/svg11.dtd">
<svg version="1.1" id="Ebene_1" xmlns="http://www.w3.org/2000/svg" xmlns:xlink="http://www.w3.org/1999/xlink" x="0px" y="0px"
	 width="751.754px" height="225.438px" viewBox="0 0 751.754 225.438" enable-background="new 0 0 751.754 225.438"
	 xml:space="preserve">

<style type="text/css">
	.link-protocol rect {
		pointer-events:all;
	}

	.link-protocol rect:hover {
		fill: black;
	}

</style>

<g>
	<defs>
		<rect id="SVGID_1_" x="42.825" y="38.157" width="724" height="155"/>
	</defs>
	<clipPath id="SVGID_2_">
		<use xlink:href="#SVGID_1_"  overflow="visible"/>
	</clipPath>
	<rect x="42.825" y="38.157" opacity="0" clip-path="url(#SVGID_2_)" fill="#FFFFFF" width="724" height="155"/>
	<rect x="43.825" y="101.157" clip-path="url(#SVGID_2_)" fill="#E0E1E3" width="318" height="33"/>
	<rect x="368.825" y="101.157" clip-path="url(#SVGID_2_)" fill="#E0E1E3" width="318" height="33"/>

	
	<a href="/protokoll/#!/76?search=Hilfspaket#top-zp-2-finanzhilfen-zugunsten-griechenlands" target="_blank" class="link-protocol"><rect x="345.825" y="101.157" clip-path="url(#SVGID_2_)" fill="#46B4C6" width="8" height="33"/></a>

	<a href="/protokoll/#!/89?search=Hilfspaket#top-zp-4-finanzhilfen-zugunsten-griechenlands" target="_blank" class="link-protocol"><rect x="421.825" y="101.157" clip-path="url(#SVGID_2_)" fill="#46B4C6" width="8" height="33"/></a>

	<a href="/protokoll/#!/118?search=Hilfspaket#top-1-regierungserklarung-stabilitatshilfe-fur-griechenland" target="_blank" class="link-protocol"><rect x="576.825" y="101.157" clip-path="url(#SVGID_2_)" fill="#46B4C6" width="9" height="33"/></a>

	<g clip-path="url(#SVGID_2_)">
		<text transform="matrix(1 0 0 1 186.855 156.8174)" fill="#030303" font-family="Helvetica" font-size="15">2014</text>
	</g>
	<g clip-path="url(#SVGID_2_)">
		<text transform="matrix(1 0 0 1 513.606 156.8174)" fill="#030303" font-family="Helvetica" font-size="15">2015</text>
	</g>
	<rect x="42.825" y="164.157" clip-path="url(#SVGID_2_)" fill="#46B4C6" width="8" height="33"/>
	<g clip-path="url(#SVGID_2_)">
		<text transform="matrix(1 0 0 1 60.1226 186.0859)" fill="#030303" font-family="Helvetica" font-size="15">Bundestagsdebatten zur Griechenlandkrise</text>
	</g>
	<g clip-path="url(#SVGID_2_)">
		<text transform="matrix(1 0 0 1 254.7881 46.6992)" fill="#030303" font-family="Helvetica" font-size="12">1. Verlängerung</text>
	</g>
	<g clip-path="url(#SVGID_2_)">
		<text transform="matrix(1 0 0 1 254.7881 61.6992)">
			<tspan x="0" y="0" fill="#030303" font-family="Helvetica" font-size="12">des</tspan>
		</text>
	</g>
	<g clip-path="url(#SVGID_2_)">
		<text transform="matrix(1 0 0 1 277.7881 61.6992)" fill="#030303" font-family="Helvetica" font-weight="bold" font-size="12">Hilfepakets II</text>
	</g>
	<g clip-path="url(#SVGID_2_)">
		<text transform="matrix(1 0 0 1 393.9336 47.0762)" fill="#030303" font-family="Helvetica" font-size="12">2. Debatte über Abstimmung</text>
	</g>
	<g clip-path="url(#SVGID_2_)">
		<text transform="matrix(1 0 0 1 393.9336 62.0762)" fill="#030303" font-family="Helvetica" font-size="12">zum neuen</text>
	</g>
	<g clip-path="url(#SVGID_2_)">
		<text transform="matrix(1 0 0 1 455.9341 62.0762)" fill="#030303" font-family="Helvetica" font-size="12" font-weight="bold">Hilfspaket III</text>
	</g>
	<g clip-path="url(#SVGID_2_)">
		<text transform="matrix(1 0 0 1 567.3472 47.0039)" fill="#030303" font-family="Helvetica" font-size="12">Zustimmung zu</text>
	</g>
	<g clip-path="url(#SVGID_2_)">
		<text transform="matrix(1 0 0 1 567.3472 62.0039)" fill="#030303" font-family="Helvetica" font-size="12" font-weight="bold">Hilfspaket III</text>
	</g>
	<g clip-path="url(#SVGID_2_)">
		<text transform="matrix(1 0 0 1 254.7881 78.7891)" fill="#030303" font-family="Helvetica" font-size="12" font-style="italic">18. Dezember</text>
	</g>
	<g clip-path="url(#SVGID_2_)">
		<text transform="matrix(1 0 0 1 394.0405 78.7891)" fill="#030303" font-family="Helvetica" font-size="12" font-style="italic">27. Februar</text>
	</g>
	<g clip-path="url(#SVGID_2_)">
		<text transform="matrix(1 0 0 1 567.3901 78.7891)" fill="#030303" font-family="Helvetica" font-size="12" font-style="italic">19. August</text>
	</g>
	
		<line clip-path="url(#SVGID_2_)" fill="#C7C9CB" stroke="#97999C" stroke-width="0.5" stroke-miterlimit="10" x1="349.825" y1="68.377" x2="349.825" y2="94.146"/>
	
		<line clip-path="url(#SVGID_2_)" fill="#C7C9CB" stroke="#97999C" stroke-width="0.5" stroke-miterlimit="10" x1="425.325" y1="83.376" x2="425.325" y2="94.146"/>
	
		<line clip-path="url(#SVGID_2_)" fill="#C7C9CB" stroke="#97999C" stroke-width="0.5" stroke-miterlimit="10" x1="581.325" y1="83.376" x2="581.325" y2="94.146"/>
</g>
</svg>
